# xmcd
#
# Track frame offsets: 
#        150
#        8148
#        22009
#        34940
#        49032
#        63209
#        80426
#        96860
#        110793
#        127974
#        139028
#        156201
#
# Disc length: 2304 seconds
#
# Revision: 0
# Processed by: cddbd v1.5.2PL0 Copyright (c) Steve Scherf et al.
# Submitted via: ExactAudioCopy v0.95b4
#
DISCID=9908fe0c
DTITLE=Son Of Dave - Shake A Bone
DYEAR=2010
DGENRE=Blues
TTITLE0=Rock and Roll Talent Show
TTITLE1=Shake A Bone
TTITLE2=She Just Danced All Night
TTITLE3=Broke-down Lincoln
TTITLE4=Voodoo Doll
TTITLE5=Guilty
TTITLE6=Revolution Town
TTITLE7=Stiletto
TTITLE8=You All But Stay
TTITLE9=Undertaker
TTITLE10=Ain't Nothin' But The Blues
TTITLE11=The Way We Roll 'em
EXTD=
EXTT0=
EXTT1=
EXTT2=
EXTT3=
EXTT4=
EXTT5=
EXTT6=
EXTT7=
EXTT8=
EXTT9=
EXTT10=
EXTT11=
PLAYORDER=
